<?xml version="1.0" standalone="no"?>
<!DOCTYPE svg PUBLIC "-//W3C//DTD SVG 20010904//EN"
 "http://www.w3.org/TR/2001/REC-SVG-20010904/DTD/svg10.dtd">
<svg version="1.0" xmlns="http://www.w3.org/2000/svg"
 width="260.000000pt" height="260.000000pt" viewBox="0 0 260.000000 260.000000"
 preserveAspectRatio="xMidYMid meet">
<metadata>
Created by potrace 1.11, written by Peter Selinger 2001-2013
</metadata>
<g transform="translate(0.000000,260.000000) scale(0.100000,-0.100000)"
fill="#000000" stroke="none">
<path d="M1065 2575 c-257 -46 -491 -170 -680 -360 -154 -153 -252 -313 -320
-520 -30 -91 -39 -129 -51 -213 -5 -36 -5 -329 1 -367 24 -178 97 -368 201
-527 183 -278 448 -464 781 -548 515 -131 1078 88 1377 534 41 61 88 141 105
178 33 75 83 232 103 323 16 79 16 371 0 450 -61 284 -176 501 -366 690 -193
192 -427 316 -684 360 -104 18 -368 18 -467 0z m401 -336 c198 -52 360 -184
445 -364 39 -83 69 -205 69 -284 0 -69 -35 -229 -69 -318 -61 -157 -178 -365
-313 -558 -77 -110 -287 -375 -297 -375 -10 1 -225 277 -297 380 -192 279
-312 517 -361 720 -20 82 -28 207 -15 234 6 12 15 47 22 79 6 32 30 95 53 140
50 101 169 226 267 280 152 84 335 108 496 66z"/>
<path d="M1204 1797 c-119 -57 -167 -192 -110 -313 80 -173 333 -172 419 1 36
74 28 168 -20 238 -61 88 -190 121 -289 74z"/>
</g>
</svg>
